<?xml version="1.0" encoding="UTF-8"?>
<svg width="328px" height="219px" viewBox="0 0 328 219" version="1.1" xmlns="http://www.w3.org/2000/svg" xmlns:xlink="http://www.w3.org/1999/xlink">
    <title>illo-sync-dark-mobile</title>
    <defs>
        <linearGradient x1="100%" y1="26.4397689%" x2="100%" y2="78.9472399%" id="linearGradient-1">
            <stop stop-color="#7B44FC" offset="0%"></stop>
            <stop stop-color="#7B44FC" stop-opacity="0.358746722" offset="100%"></stop>
        </linearGradient>
        <linearGradient x1="100%" y1="26.4397689%" x2="100%" y2="78.9472399%" id="linearGradient-2">
            <stop stop-color="#7B44FC" offset="0%"></stop>
            <stop stop-color="#7B44FC" stop-opacity="0.358746722" offset="100%"></stop>
        </linearGradient>
        <linearGradient x1="100%" y1="26.4397689%" x2="100%" y2="78.9472399%" id="linearGradient-3">
            <stop stop-color="#7B44FC" offset="0%"></stop>
            <stop stop-color="#7B44FC" stop-opacity="0.358746722" offset="100%"></stop>
        </linearGradient>
        <linearGradient x1="100%" y1="26.4397689%" x2="100%" y2="78.9472399%" id="linearGradient-4">
            <stop stop-color="#7B44FC" offset="0%"></stop>
            <stop stop-color="#7B44FC" stop-opacity="0.358746722" offset="100%"></stop>
        </linearGradient>
        <linearGradient x1="100%" y1="26.4397689%" x2="100%" y2="78.9472399%" id="linearGradient-5">
            <stop stop-color="#7B44FC" offset="0%"></stop>
            <stop stop-color="#7B44FC" stop-opacity="0.358746722" offset="100%"></stop>
        </linearGradient>
        <linearGradient x1="100%" y1="26.4397689%" x2="100%" y2="78.9472399%" id="linearGradient-6">
            <stop stop-color="#7B44FC" offset="0%"></stop>
            <stop stop-color="#7B44FC" stop-opacity="0.358746722" offset="100%"></stop>
        </linearGradient>
    </defs>
    <g id="illo-sync-dark-mobile" stroke="none" stroke-width="1" fill="none" fill-rule="evenodd">
        <path d="M14.5264626,71 L312.473537,71 C315.525718,71 318,73.4742816 318,76.5264626 L318,230 L318,230 L9,230 L9,76.5264626 C9,73.4742816 11.4742816,71 14.5264626,71 Z" id="Rectangle" stroke="#FFFFFF" stroke-width="1.5"></path>
        <rect id="Rectangle-Copy-4" stroke="#FFFFFF" stroke-width="1.5" x="33" y="118" width="80.3076923" height="80.4155844" rx="4"></rect>
        <rect id="Rectangle-Copy-7" stroke="#FFFFFF" stroke-width="1.5" x="33" y="210" width="80.3076923" height="80.4155844" rx="4"></rect>
        <rect id="Rectangle-Copy-5" stroke="#FFFFFF" stroke-width="1.5" x="123.5" y="118" width="80.3076923" height="80.4155844" rx="4"></rect>
        <rect id="Rectangle-Copy-8" stroke="#FFFFFF" stroke-width="1.5" x="123.5" y="210" width="80.3076923" height="80.4155844" rx="4"></rect>
        <rect id="Rectangle-Copy-6" stroke="#FFFFFF" stroke-width="1.5" x="214" y="118" width="80.3076923" height="80.4155844" rx="4"></rect>
        <rect id="Rectangle-Copy-9" stroke="#FFFFFF" stroke-width="1.5" x="214" y="210" width="80.3076923" height="80.4155844" rx="4"></rect>
        <path d="M20,81 L39,81 C39.5522847,81 40,81.4477153 40,82 C40,82.5522847 39.5522847,83 39,83 L20,83 C19.4477153,83 19,82.5522847 19,82 C19,81.4477153 19.4477153,81 20,81 Z" id="Rectangle" fill="#FFFFFF"></path>
        <path d="M288,81 L307,81 C307.552285,81 308,81.4477153 308,82 C308,82.5522847 307.552285,83 307,83 L288,83 C287.447715,83 287,82.5522847 287,82 C287,81.4477153 287.447715,81 288,81 Z" id="Rectangle-Copy" fill="#FFFFFF"></path>
        <path d="M265,81 L284,81 C284.552285,81 285,81.4477153 285,82 C285,82.5522847 284.552285,83 284,83 L265,83 C264.447715,83 264,82.5522847 264,82 C264,81.4477153 264.447715,81 265,81 Z" id="Rectangle-Copy-2" fill="#FFFFFF"></path>
        <path d="M242,81 L261,81 C261.552285,81 262,81.4477153 262,82 C262,82.5522847 261.552285,83 261,83 L242,83 C241.447715,83 241,82.5522847 241,82 C241,81.4477153 241.447715,81 242,81 Z" id="Rectangle-Copy-10" fill="#FFFFFF"></path>
        <line x1="33.5759165" y1="30.68" x2="162.575917" y2="158.68" id="Line-2" stroke="url(#linearGradient-1)" stroke-width="2" stroke-linecap="round" stroke-dasharray="0,6"></line>
        <line x1="85.5759165" y1="30.68" x2="162.575917" y2="158.68" id="Line-2" stroke="url(#linearGradient-2)" stroke-width="2" stroke-linecap="round" stroke-dasharray="0,6"></line>
        <line x1="137.575917" y1="30.68" x2="162.575917" y2="158.68" id="Line-2" stroke="url(#linearGradient-3)" stroke-width="2" stroke-linecap="round" stroke-dasharray="0,6"></line>
        <line x1="189.575917" y1="30.68" x2="162.575917" y2="158.68" id="Line-2" stroke="url(#linearGradient-4)" stroke-width="2" stroke-linecap="round" stroke-dasharray="0,6"></line>
        <line x1="241.575917" y1="30.68" x2="162.575917" y2="158.68" id="Line-2" stroke="url(#linearGradient-5)" stroke-width="2" stroke-linecap="round" stroke-dasharray="0,6"></line>
        <line x1="293.575917" y1="30.68" x2="162.575917" y2="158.68" id="Line-2" stroke="url(#linearGradient-6)" stroke-width="2" stroke-linecap="round" stroke-dasharray="0,6"></line>
        <circle id="Oval" stroke="#FFFFFF" stroke-width="1.5" fill="#000000" cx="86" cy="31" r="24.25"></circle>
        <path d="M78.6068376,25.5512821 C77.9922543,25.5512821 77.4957265,26.0382612 77.4957265,26.6410256 L77.4957265,35.3589744 C77.4957265,35.9617388 77.9922543,36.4487179 78.6068376,36.4487179 L87.4957265,36.4487179 C88.1103098,36.4487179 88.6068376,35.9617388 88.6068376,35.3589744 L88.6068376,26.6410256 C88.6068376,26.0382612 88.1103098,25.5512821 87.4957265,25.5512821 L78.6068376,25.5512821 Z M76.3846154,26.6410256 C76.3846154,25.4389022 77.3811432,24.4615385 78.6068376,24.4615385 L87.4957265,24.4615385 C88.7214209,24.4615385 89.7179487,25.4389022 89.7179487,26.6410256 L89.7179487,28.2483974 L89.7179487,33.7516026 L89.7179487,35.3589744 C89.7179487,36.5610978 88.7214209,37.5384615 87.4957265,37.5384615 L78.6068376,37.5384615 C77.3811432,37.5384615 76.3846154,36.5610978 76.3846154,35.3589744 L76.3846154,26.6410256 Z M94.4193376,36.2886619 L90.8290598,34.3509615 L90.8290598,33.1079728 L94.9540598,35.3351362 C94.9853098,35.3521635 95.0200321,35.3623798 95.0582265,35.3623798 C95.1762821,35.3623798 95.2735043,35.2670272 95.2735043,35.151242 L95.2735043,26.8521635 C95.2735043,26.7363782 95.1762821,26.6410256 95.0582265,26.6410256 C95.0235043,26.6410256 94.9853098,26.651242 94.9540598,26.6682692 L90.8290598,28.8920272 L90.8290598,27.6490385 L94.4193376,25.7113381 C94.6137821,25.6057692 94.8360043,25.5512821 95.0582265,25.5512821 C95.7908654,25.5512821 96.3846154,26.1336138 96.3846154,26.8521635 L96.3846154,35.1478365 C96.3846154,35.8663862 95.7908654,36.4487179 95.0582265,36.4487179 C94.8360043,36.4487179 94.6137821,36.3942308 94.4193376,36.2886619 Z" id="Shape" stroke="#FFFFFF" stroke-width="0.25" fill="#FFFFFF" fill-rule="nonzero"></path>
        <circle id="Oval-Copy-4" stroke="#FFFFFF" stroke-width="1.5" fill="#000000" cx="190" cy="31" r="24.25"></circle>
        <path d="M189.821429,24.365899 C189.89011,24.070591 189.70467,23.7752829 189.409341,23.7066067 C189.114011,23.6379304 188.818681,23.8233563 188.75,24.1186644 L187.960165,27.5387434 L184.340659,27.5387434 C184.038462,27.5387434 183.791209,27.785978 183.791209,28.0881537 C183.791209,28.3903293 184.038462,28.637564 184.340659,28.637564 L187.706044,28.637564 L186.438874,34.1316668 L183.241758,34.1316668 C182.93956,34.1316668 182.692308,34.3789014 182.692308,34.6810771 C182.692308,34.9832527 182.93956,35.2304874 183.241758,35.2304874 L186.184753,35.2304874 L185.453297,38.4033318 C185.384615,38.6986398 185.570055,38.9939478 185.865385,39.0626241 C186.160714,39.1313004 186.456044,38.9458744 186.524725,38.6505664 L187.31456,35.2304874 L191.679258,35.2304874 L190.947802,38.4033318 C190.879121,38.6986398 191.06456,38.9939478 191.35989,39.0626241 C191.65522,39.1313004 191.950549,38.9458744 192.019231,38.6505664 L192.809066,35.2304874 L196.428571,35.2304874 C196.730769,35.2304874 196.978022,34.9832527 196.978022,34.6810771 C196.978022,34.3789014 196.730769,34.1316668 196.428571,34.1316668 L193.063187,34.1316668 L194.330357,28.637564 L197.527473,28.637564 C197.82967,28.637564 198.076923,28.3903293 198.076923,28.0881537 C198.076923,27.785978 197.82967,27.5387434 197.527473,27.5387434 L194.584478,27.5387434 L195.315934,24.365899 C195.384615,24.070591 195.199176,23.7752829 194.903846,23.7066067 C194.608516,23.6379304 194.313187,23.8233563 194.244505,24.1186644 L193.45467,27.5387434 L189.089973,27.5387434 L189.821429,24.365899 Z M188.835852,28.637564 L193.200549,28.637564 L191.933379,34.1316668 L187.568681,34.1316668 L188.835852,28.637564 Z" id="Shape" stroke="#FFFFFF" stroke-width="0.25" fill="#FFFFFF" fill-rule="nonzero"></path>
        <circle id="Oval-Copy-2" stroke="#FFFFFF" stroke-width="1.5" fill="#000000" cx="242" cy="31" r="24.25"></circle>
        <path d="M238.717695,22.1538462 C237.781964,22.1538462 236.876635,22.4855769 236.150345,23.0902945 L233.478273,25.3294772 L232.012181,26.5561899 C231.549382,26.9432091 231.48182,27.641226 231.860167,28.1111779 L234.255235,31.1071214 C234.633581,31.5805288 235.315956,31.6496394 235.775376,31.2626202 L236.981356,30.2536058 L236.981356,37.9110577 C236.981356,38.9788161 237.829257,39.8461538 238.873088,39.8461538 L245.899521,39.8461538 C246.943352,39.8461538 247.791253,38.9788161 247.791253,37.9110577 L247.791253,30.2536058 L248.993854,31.2591647 C249.456653,31.6461839 250.13565,31.5770733 250.513996,31.1036659 L252.909064,28.1077224 C253.287411,27.6343149 253.219849,26.9397536 252.75705,26.5527344 L252.415863,26.98122 L252.75705,26.5527344 L251.294336,25.3294772 L248.622264,23.0902945 C247.895974,22.4855769 246.990645,22.1538462 246.054913,22.1538462 L245.842094,22.1538462 C245.798178,22.1538462 245.757641,22.1573017 245.717104,22.1607572 C245.690079,22.1573017 245.659677,22.1538462 245.629274,22.1538462 L239.143335,22.1538462 C239.112932,22.1538462 239.085908,22.1573017 239.055505,22.1607572 C239.014968,22.1573017 238.97443,22.1538462 238.930515,22.1538462 L238.717695,22.1538462 Z M240.092579,23.2596154 L244.68003,23.2596154 C244.345598,24.2271635 243.443648,24.9182692 242.386304,24.9182692 C241.328961,24.9182692 240.42701,24.2271635 240.092579,23.2596154 Z M236.836098,23.9472656 C237.366458,23.5015024 238.031943,23.2596154 238.717695,23.2596154 L238.930515,23.2596154 L238.930515,23.2596154 C238.930515,23.2596154 238.937271,23.2630709 238.944028,23.269982 C238.960918,23.2838041 238.977809,23.3114483 238.987943,23.3460036 C239.38318,24.8871695 240.754686,26.0240385 242.386304,26.0240385 C244.017923,26.0240385 245.389429,24.8871695 245.784666,23.3460036 C245.7948,23.3114483 245.811691,23.2838041 245.828581,23.269982 C245.835337,23.2630709 245.842094,23.2630709 245.842094,23.2596154 L245.842094,23.2596154 L246.054913,23.2596154 C246.740666,23.2596154 247.406151,23.5015024 247.936511,23.9472656 L250.611961,26.1864483 L252.074675,27.4131611 L249.679607,30.4091046 L248.216893,29.1823918 L247.595324,28.660607 C247.433175,28.5258413 247.210221,28.4981971 247.021048,28.5880409 C246.831875,28.6778846 246.713642,28.8748498 246.713642,29.0890925 L246.713642,37.9110577 C246.713642,38.370643 246.352186,38.7403846 245.902899,38.7403846 L238.873088,38.7403846 C238.423801,38.7403846 238.062345,38.370643 238.062345,37.9110577 L238.062345,29.0890925 C238.062345,28.8748498 237.940734,28.6813401 237.754939,28.5880409 C237.569144,28.4947416 237.342812,28.5258413 237.180663,28.660607 L236.559094,29.1823918 L235.09638,30.4091046 L232.697934,27.4097055 L234.160648,26.1829928 L236.836098,23.9438101 L236.836098,23.9472656 Z" id="Shape" stroke="#FFFFFF" stroke-width="0.25" fill="#FFFFFF" fill-rule="nonzero"></path>
        <circle id="Oval-Copy-3" stroke="#FFFFFF" stroke-width="1.5" fill="#000000" cx="138" cy="31" r="24.25"></circle>
        <path d="M144.978022,23.4725275 C145.707418,23.4725275 146.296703,24.0618132 146.296703,24.7912088 L146.296703,37.978022 C146.296703,38.7074176 145.707418,39.2967033 144.978022,39.2967033 L131.791209,39.2967033 C131.061813,39.2967033 130.472527,38.7074176 130.472527,37.978022 L130.472527,24.7912088 C130.472527,24.0618132 131.061813,23.4725275 131.791209,23.4725275 L144.978022,23.4725275 Z M131.791209,22.1538462 C130.336538,22.1538462 129.153846,23.3365385 129.153846,24.7912088 L129.153846,37.978022 C129.153846,39.4326923 130.336538,40.6153846 131.791209,40.6153846 L144.978022,40.6153846 C146.432692,40.6153846 147.615385,39.4326923 147.615385,37.978022 L147.615385,24.7912088 C147.615385,23.3365385 146.432692,22.1538462 144.978022,22.1538462 L131.791209,22.1538462 Z M138.384615,26.1098901 C141.297766,26.1098901 143.659341,28.4714651 143.659341,31.3846154 C143.659341,34.2977657 141.297766,36.6593407 138.384615,36.6593407 C135.471465,36.6593407 133.10989,34.2977657 133.10989,31.3846154 C133.10989,28.4714651 135.471465,26.1098901 138.384615,26.1098901 Z M138.384615,37.978022 C142.026053,37.978022 144.978022,35.0260533 144.978022,31.3846154 C144.978022,27.7431775 142.026053,24.7912088 138.384615,24.7912088 C134.743177,24.7912088 131.791209,27.7431775 131.791209,31.3846154 C131.791209,35.0260533 134.743177,37.978022 138.384615,37.978022 Z M138.384615,32.3736264 C138.930831,32.3736264 139.373626,31.9308311 139.373626,31.3846154 C139.373626,30.8383997 138.930831,30.3956044 138.384615,30.3956044 C137.8384,30.3956044 137.395604,30.8383997 137.395604,31.3846154 C137.395604,31.9308311 137.8384,32.3736264 138.384615,32.3736264 L138.384615,32.3736264 Z" id="Shape" stroke="#FFFFFF" stroke-width="0.25" fill="#FFFFFF" fill-rule="nonzero"></path>
        <circle id="Oval-Copy-5" stroke="#FFFFFF" stroke-width="1.5" fill="#000000" cx="294" cy="31" r="24.25"></circle>
        <path d="M286.846154,23.6923077 C284.211899,23.6923077 282.076923,25.8731971 282.076923,28.5641026 C282.076923,31.255008 284.211899,33.4358974 286.846154,33.4358974 L288.038462,33.4358974 C288.366346,33.4358974 288.634615,33.161859 288.634615,32.8269231 C288.634615,32.4919872 288.366346,32.2179487 288.038462,32.2179487 L286.846154,32.2179487 C284.871394,32.2179487 283.269231,30.5813301 283.269231,28.5641026 C283.269231,26.546875 284.871394,24.9102564 286.846154,24.9102564 L293.407572,24.9102564 C295.378606,24.9102564 296.980769,26.5430689 296.980769,28.5602965 C296.980769,30.4747596 295.53137,32.061899 293.664663,32.1989183 L293.362861,32.2217548 C293.034976,32.2445913 292.789063,32.5376603 292.811418,32.8725962 C292.833774,33.2075321 293.120673,33.458734 293.448558,33.4358974 L293.750361,33.4130609 C296.243029,33.2303686 298.173077,31.1103766 298.173077,28.5602965 C298.173077,25.869391 296.041827,23.6923077 293.407572,23.6923077 L286.846154,23.6923077 Z M301.153846,38.3076923 C303.788101,38.3076923 305.923077,36.1268029 305.923077,33.4358974 C305.923077,30.744992 303.788101,28.5641026 301.153846,28.5641026 L299.961538,28.5641026 C299.633654,28.5641026 299.365385,28.838141 299.365385,29.1730769 C299.365385,29.5080128 299.633654,29.7820513 299.961538,29.7820513 L301.153846,29.7820513 C303.128606,29.7820513 304.730769,31.4186699 304.730769,33.4358974 C304.730769,35.453125 303.128606,37.0897436 301.153846,37.0897436 L294.592428,37.0897436 C292.621394,37.0897436 291.019231,35.4569311 291.019231,33.4397035 C291.019231,31.5252404 292.46863,29.938101 294.335337,29.8010817 L294.637139,29.7782452 C294.965024,29.7554087 295.210938,29.4623397 295.188582,29.1274038 C295.166226,28.7924679 294.879327,28.541266 294.551442,28.5641026 L294.249639,28.5869391 C291.756971,28.7696314 289.826923,30.8896234 289.826923,33.4397035 C289.826923,36.130609 291.958173,38.3076923 294.592428,38.3076923 L301.153846,38.3076923 Z" id="Shape" stroke="#FFFFFF" stroke-width="0.25" fill="#FFFFFF" fill-rule="nonzero"></path>
        <circle id="Oval-Copy" stroke="#FFFFFF" stroke-width="1.5" fill="#000000" cx="34" cy="31" r="24.25"></circle>
        <path d="M26.6068376,24.4615385 C25.3811432,24.4615385 24.3846154,25.4389022 24.3846154,26.6410256 L24.3846154,28.8886218 C24.3846154,29.1372196 24.5547543,29.3551683 24.8012821,29.4164663 C25.5200321,29.5969551 26.0512821,30.2371795 26.0512821,31 C26.0512821,31.7628205 25.5200321,32.4030449 24.8012821,32.5835337 C24.5547543,32.6448317 24.3846154,32.8627804 24.3846154,33.1113782 L24.3846154,35.3589744 C24.3846154,36.5610978 25.3811432,37.5384615 26.6068376,37.5384615 L42.1623932,37.5384615 C43.3880876,37.5384615 44.3846154,36.5610978 44.3846154,35.3589744 L44.3846154,33.1113782 C44.3846154,32.8627804 44.2144765,32.6448317 43.9679487,32.5835337 C43.2491987,32.4030449 42.7179487,31.7628205 42.7179487,31 C42.7179487,30.2371795 43.2491987,29.5969551 43.9679487,29.4164663 C44.2144765,29.3551683 44.3846154,29.1372196 44.3846154,28.8886218 L44.3846154,26.6410256 C44.3846154,25.4389022 43.3880876,24.4615385 42.1623932,24.4615385 L26.6068376,24.4615385 Z M25.4957265,26.6410256 C25.4957265,26.0382612 25.9922543,25.5512821 26.6068376,25.5512821 L42.1623932,25.5512821 C42.7769765,25.5512821 43.2735043,26.0382612 43.2735043,26.6410256 L43.2735043,28.5038061 C42.2943376,28.9226763 41.6068376,29.8830128 41.6068376,31 C41.6068376,32.1169872 42.2943376,33.0773237 43.2735043,33.4961939 L43.2735043,35.3589744 C43.2735043,35.9617388 42.7769765,36.4487179 42.1623932,36.4487179 L26.6068376,36.4487179 C25.9922543,36.4487179 25.4957265,35.9617388 25.4957265,35.3589744 L25.4957265,33.4961939 C26.4748932,33.0773237 27.1623932,32.1169872 27.1623932,31 C27.1623932,29.8830128 26.4748932,28.9226763 25.4957265,28.5038061 L25.4957265,26.6410256 Z M29.9401709,28.8205128 L38.8290598,28.8205128 L38.8290598,33.1794872 L29.9401709,33.1794872 L29.9401709,28.8205128 Z M28.8290598,28.8205128 L28.8290598,33.1794872 C28.8290598,33.7822516 29.3255876,34.2692308 29.9401709,34.2692308 L38.8290598,34.2692308 C39.4436432,34.2692308 39.9401709,33.7822516 39.9401709,33.1794872 L39.9401709,28.8205128 C39.9401709,28.2177484 39.4436432,27.7307692 38.8290598,27.7307692 L29.9401709,27.7307692 C29.3255876,27.7307692 28.8290598,28.2177484 28.8290598,28.8205128 Z" id="Shape" stroke="#FFFFFF" stroke-width="0.25" fill="#FFFFFF" fill-rule="nonzero"></path>
        <circle id="Oval-Copy-6" fill="#7B44FC" cx="163" cy="158" r="25"></circle>
        <path d="M154.94223,155.859504 C155.796406,152.339694 158.970256,149.723901 162.755428,149.723901 C165.732483,149.723901 168.328508,151.339414 169.718637,153.741758 L167.445022,153.741758 C167.076554,153.741758 166.77508,154.043098 166.77508,154.411401 C166.77508,154.779705 167.076554,155.081044 167.445022,155.081044 L170.824041,155.081044 L171.464673,155.081044 C171.833142,155.081044 172.134615,154.779705 172.134615,154.411401 L172.134615,150.393544 C172.134615,150.02524 171.833142,149.723901 171.464673,149.723901 C171.096205,149.723901 170.794732,150.02524 170.794732,150.393544 L170.794732,152.929816 C169.153374,150.205207 166.167945,148.384615 162.755428,148.384615 C158.300314,148.384615 154.569575,151.490084 153.614908,155.65024 C153.522791,156.052026 153.841013,156.42033 154.25554,156.42033 C154.586324,156.42033 154.866862,156.181769 154.946418,155.859504 L154.94223,155.859504 Z M170.568626,159.663912 C169.71445,163.179537 166.5406,165.79533 162.755428,165.79533 C159.778374,165.79533 157.182349,164.179816 155.792219,161.777473 L158.074209,161.777473 C158.442677,161.777473 158.744151,161.476133 158.744151,161.10783 C158.744151,160.739526 158.442677,160.438187 158.074209,160.438187 L154.686815,160.438187 L154.054557,160.438187 C153.686089,160.438187 153.384615,160.739526 153.384615,161.10783 L153.384615,165.125687 C153.384615,165.49399 153.686089,165.79533 154.054557,165.79533 C154.423025,165.79533 154.724499,165.49399 154.724499,165.125687 L154.724499,162.606156 C156.365857,165.318209 159.351286,167.134615 162.755428,167.134615 C167.210542,167.134615 170.941281,164.029147 171.895949,159.86899 C171.988066,159.467205 171.669843,159.098901 171.255317,159.098901 C170.924533,159.098901 170.643995,159.337461 170.564439,159.659727 L170.568626,159.663912 Z" id="Shape" stroke="#FFFFFF" stroke-width="0.25" fill="#FFFFFF" fill-rule="nonzero"></path>
    </g>
</svg>